<?xml version="1.0" standalone="no"?>
<!DOCTYPE svg PUBLIC "-//W3C//DTD SVG 20010904//EN"
 "http://www.w3.org/TR/2001/REC-SVG-20010904/DTD/svg10.dtd">
<svg version="1.0" xmlns="http://www.w3.org/2000/svg"
 width="700.000000pt" height="700.000000pt" viewBox="0 0 700.000000 700.000000"
 preserveAspectRatio="xMidYMid meet">
<metadata>
Created by potrace 1.14, written by Peter Selinger 2001-2017
</metadata>
<g transform="translate(0.000000,700.000000) scale(0.100000,-0.100000)"
fill="#000000" stroke="none">
<path d="M3425 6987 c-63 -21 -116 -52 -162 -95 -36 -33 -45 -37 -55 -25 -6 8
-31 26 -55 39 -157 92 -366 49 -474 -99 -34 -46 -32 -46 -99 -14 -36 18 -63
22 -140 22 -84 0 -102 -3 -153 -28 -70 -34 -136 -100 -171 -172 l-27 -54 -33
14 c-79 33 -206 20 -291 -30 -83 -48 -159 -151 -171 -231 l-6 -41 -81 1 c-97
0 -146 -13 -211 -55 -98 -65 -156 -176 -165 -315 -1 -6 -23 -12 -51 -13 -115
-4 -235 -80 -290 -183 -36 -67 -47 -114 -44 -191 l2 -75 -34 -7 c-86 -16 -182
-81 -229 -155 -52 -82 -70 -215 -41 -299 l15 -41 -45 -20 c-185 -81 -270 -304
-184 -482 19 -40 18 -68 -4 -68 -6 0 -29 -17 -52 -38 -140 -127 -162 -340 -49
-487 l24 -32 -44 -43 c-139 -136 -136 -358 7 -511 l34 -37 -28 -33 c-57 -68
-87 -200 -66 -293 20 -89 83 -183 153 -226 l34 -21 -25 -54 c-35 -75 -42 -176
-19 -260 9 -36 21 -65 26 -65 5 0 9 -6 9 -13 0 -24 97 -113 150 -138 55 -26
54 -24 36 -93 -47 -180 77 -384 260 -428 l49 -12 1 -90 c1 -75 5 -101 26 -146
35 -76 86 -131 155 -167 55 -30 156 -57 183 -51 9 2 14 -12 17 -46 7 -119 67
-220 173 -290 54 -36 108 -50 194 -50 l79 -1 19 -59 c34 -104 100 -180 198
-228 37 -18 62 -22 145 -23 62 0 108 5 122 13 20 11 23 9 41 -30 88 -194 307
-277 491 -185 43 21 48 21 55 -1 9 -27 76 -95 122 -125 124 -77 294 -70 409
18 l32 24 39 -41 c21 -23 68 -55 104 -72 57 -27 76 -31 150 -31 75 0 93 4 150
31 36 18 82 48 103 68 42 41 44 41 66 22 32 -28 107 -64 156 -74 147 -31 296
33 385 166 l15 22 55 -28 c49 -24 66 -27 150 -27 81 0 103 4 150 26 69 32 143
105 172 170 22 48 25 50 53 44 84 -19 110 -22 150 -19 97 9 195 63 253 139 34
45 72 131 72 164 0 16 8 18 69 15 115 -4 197 25 275 98 66 63 111 170 115 275
1 6 9 10 18 9 31 -5 118 15 168 39 66 31 138 106 171 180 24 51 28 73 28 147
l0 86 35 7 c99 19 200 98 247 193 25 51 28 68 28 157 1 62 -4 108 -12 122 -11
20 -9 23 30 41 192 87 276 303 187 486 -23 49 -23 53 -1 60 32 11 112 94 136
143 35 70 45 116 42 191 -3 71 -28 142 -70 197 l-24 31 35 35 c80 77 119 179
109 283 -9 99 -38 163 -105 235 -17 18 -31 35 -31 37 0 2 14 23 30 46 79 108
85 273 15 393 -24 40 -88 105 -129 130 -14 9 -13 16 11 65 24 48 27 67 28 150
0 85 -3 101 -29 154 -35 71 -103 139 -168 169 -47 21 -49 24 -43 52 23 101 25
132 11 199 -10 52 -56 135 -99 177 -46 45 -123 86 -177 95 l-35 6 -1 91 c-1
106 -25 171 -88 244 -58 67 -173 116 -282 122 -7 1 -12 22 -12 50 -3 96 -62
204 -146 268 -64 48 -129 67 -222 67 l-83 0 -6 35 c-22 120 -125 231 -247 268
-59 17 -169 16 -215 -3 l-33 -13 -20 45 c-58 133 -184 216 -327 216 -60 0
-168 -26 -179 -43 -10 -16 -33 -9 -39 11 -12 36 -99 113 -165 144 -57 27 -76
31 -150 31 -91 -1 -150 -20 -216 -70 l-31 -24 -34 36 c-40 42 -90 75 -139 92
-54 18 -169 23 -215 8z m-1687 -2352 c126 -37 492 -202 647 -293 17 -9 66 -37
110 -61 94 -52 355 -203 405 -235 73 -47 119 -75 230 -144 63 -39 121 -76 128
-82 10 -9 24 -4 60 18 66 42 136 65 213 68 78 3 131 -11 239 -62 3 -1 61 33
130 77 184 116 523 314 704 413 489 265 796 373 884 309 59 -42 105 -182 128
-388 3 -33 8 -68 10 -79 25 -134 25 -1154 -1 -1361 -24 -196 -36 -262 -61
-338 -38 -116 -74 -147 -164 -141 -64 4 -71 5 -165 34 -178 56 -507 214 -815
393 -47 27 -98 57 -115 67 -82 47 -294 175 -402 243 -68 42 -129 77 -136 77
-7 0 -22 -6 -33 -14 -32 -23 -127 -47 -185 -47 -74 -1 -143 18 -211 58 -31 18
-59 33 -63 33 -4 0 -79 -45 -168 -101 -89 -55 -169 -105 -177 -110 -8 -5 -58
-34 -110 -65 -52 -31 -120 -70 -150 -87 -30 -16 -62 -35 -70 -41 -8 -7 -28
-18 -45 -26 -16 -8 -41 -22 -55 -31 -14 -9 -74 -42 -135 -74 -463 -245 -728
-341 -837 -303 -37 13 -70 66 -97 153 -25 80 -33 122 -46 240 -4 33 -9 73 -11
89 -25 221 -25 1159 1 1361 2 17 7 55 10 85 3 30 7 62 9 70 1 8 6 33 10 55 23
117 58 205 95 239 40 37 114 37 239 1z"/>
<path d="M1546 4486 c-35 -54 -64 -198 -83 -411 -10 -114 -11 -1037 0 -1170
20 -264 71 -443 132 -459 36 -10 96 -6 153 10 70 19 168 54 202 71 14 7 29 13
34 13 10 0 347 166 446 220 158 87 347 195 387 222 23 15 44 28 48 28 3 0 24
12 48 27 23 15 51 33 62 39 11 6 58 35 105 64 47 29 97 60 112 69 29 17 36 31
16 31 -6 0 -52 -24 -102 -54 -50 -30 -113 -66 -141 -81 -27 -16 -95 -54 -150
-85 -192 -109 -596 -318 -715 -369 -30 -12 -70 -30 -89 -38 -183 -82 -351
-117 -395 -82 -55 43 -97 207 -112 429 -3 41 -7 102 -9 135 -6 76 -6 785 0
885 12 226 29 374 54 465 10 36 17 65 16 65 -2 0 -10 -11 -19 -24z"/>
<path d="M5440 4493 c0 -6 4 -22 9 -35 20 -52 44 -238 56 -423 7 -101 7 -823
1 -935 -19 -328 -60 -519 -121 -570 -26 -22 -108 -17 -205 14 -151 47 -487
201 -750 344 -134 73 -428 237 -498 279 -70 41 -102 52 -102 36 0 -5 12 -15
28 -24 15 -9 101 -61 192 -116 280 -170 476 -281 695 -393 199 -101 424 -200
457 -200 8 0 18 -3 22 -7 3 -4 12 -8 19 -9 7 -1 28 -5 47 -9 55 -10 105 -8
130 5 30 16 75 119 91 210 7 41 13 77 14 80 1 3 5 43 10 90 4 47 9 101 12 120
5 52 4 836 -2 970 -9 221 -29 377 -60 485 -16 52 -44 108 -45 88z"/>
<path d="M4977 3954 c-1 -1 -38 -4 -82 -8 -210 -16 -365 -46 -603 -117 -131
-40 -364 -122 -380 -134 -1 -1 0 -9 3 -17 5 -13 21 -10 103 14 53 15 106 30
118 32 12 2 56 14 98 26 43 12 87 23 98 25 11 3 44 11 72 19 42 12 178 43 223
52 38 7 214 46 243 54 19 5 58 12 85 16 28 3 84 12 125 19 75 13 75 13 25 15
-27 1 -67 3 -88 4 -21 1 -39 1 -40 0z"/>
<path d="M1890 3940 c19 -5 53 -11 75 -14 51 -6 198 -33 250 -46 22 -5 94 -21
160 -35 175 -38 494 -121 710 -184 81 -24 109 -13 47 18 -109 56 -368 146
-549 190 -139 35 -219 50 -363 70 -87 12 -378 13 -330 1z"/>
<path d="M3835 3665 c22 -64 27 -97 22 -158 -21 -252 -297 -385 -521 -251
l-41 25 35 -31 c63 -56 138 -83 225 -82 154 2 295 118 323 266 15 80 -1 191
-34 231 -16 20 -16 20 -9 0z"/>
<path d="M3060 3513 c-31 -3 -83 -9 -215 -29 -72 -10 -287 -61 -399 -94 -180
-52 -350 -123 -509 -213 -59 -33 -106 -62 -104 -63 2 -2 55 16 118 40 174 66
351 125 484 163 66 18 127 35 135 38 71 20 239 61 350 86 191 42 210 48 210
64 0 7 -8 13 -17 12 -10 -1 -34 -3 -53 -4z"/>
<path d="M3950 3491 c0 -17 19 -24 138 -51 347 -81 778 -213 1020 -311 50 -20
92 -36 92 -34 0 1 -28 21 -62 43 -194 124 -445 224 -739 295 -143 35 -178 42
-254 52 -22 3 -53 7 -70 10 -109 17 -125 16 -125 -4z"/>
</g>
</svg>
