<?xml version="1.0" encoding="utf-8"?>
<svg viewBox="0 0 32 18" xmlns="http://www.w3.org/2000/svg">
  <path class="st1" d="M 30.869 0.712 C 29.71 -0.384 22.524 3.773 17.983 6.672 C 17.499 6.351 16.919 6.157 16.307 6.157 C 15.533 6.157 14.857 6.447 14.309 6.898 C 9.799 3.998 2.292 -0.416 1.068 0.712 C 0.101 1.615 -0.061 5.77 -0.028 9.217 C -0.061 12.665 0.101 16.821 1.068 17.723 C 2.26 18.851 9.767 14.437 14.309 11.537 C 14.857 11.989 15.533 12.278 16.307 12.278 C 16.919 12.278 17.499 12.085 17.983 11.762 C 22.524 14.663 29.677 18.818 30.869 17.723 C 31.836 16.821 31.997 12.665 31.965 9.217 C 31.997 5.77 31.836 1.615 30.869 0.712 Z M 4.128 5.834 C 4.418 5.834 4.87 5.834 5.385 5.834 C 5.901 5.867 6.512 5.932 7.157 6.028 C 7.801 6.124 8.478 6.286 9.154 6.447 C 9.831 6.608 10.475 6.801 11.088 7.027 C 11.699 7.22 12.28 7.445 12.731 7.639 C 13.02 7.768 13.278 7.864 13.504 7.993 C 13.471 8.025 13.471 8.09 13.439 8.154 C 13.214 8.09 12.923 8.025 12.634 7.929 C 11.635 7.671 10.346 7.285 9.025 6.962 C 8.703 6.866 8.349 6.801 8.027 6.737 C 7.704 6.672 7.382 6.575 7.06 6.51 C 6.738 6.447 6.448 6.382 6.158 6.318 C 5.868 6.253 5.61 6.221 5.353 6.157 C 4.837 6.061 4.418 5.996 4.128 5.964 C 3.838 5.932 3.645 5.899 3.645 5.899 C 3.645 5.899 3.806 5.867 4.128 5.834 Z M 3.677 11.989 C 3.935 11.827 4.354 11.57 4.837 11.311 C 5.094 11.183 5.353 11.054 5.642 10.925 C 5.933 10.797 6.255 10.668 6.577 10.539 C 7.221 10.281 7.93 10.055 8.639 9.862 C 9.348 9.668 10.089 9.508 10.765 9.379 C 11.442 9.249 12.085 9.153 12.634 9.12 C 12.86 9.089 13.02 9.089 13.214 9.057 C 13.214 9.12 13.214 9.153 13.214 9.217 C 13.214 9.249 13.214 9.249 13.214 9.282 C 13.052 9.315 12.86 9.346 12.666 9.411 C 12.118 9.539 11.507 9.668 10.83 9.83 C 10.153 9.992 9.444 10.152 8.735 10.378 C 8.381 10.474 8.027 10.57 7.673 10.668 C 7.318 10.764 6.996 10.86 6.673 10.989 C 6.352 11.086 6.029 11.183 5.739 11.311 C 5.449 11.408 5.159 11.505 4.901 11.602 C 4.643 11.699 4.418 11.794 4.194 11.859 C 3.999 11.956 3.806 12.021 3.645 12.085 C 3.355 12.213 3.162 12.278 3.162 12.278 C 3.162 12.278 3.387 12.181 3.677 11.989 Z M 1.584 16.949 C 0.777 16.112 0.649 12.375 0.682 9.282 C 0.649 6.157 0.777 2.42 1.584 1.615 C 1.584 1.615 1.584 1.615 1.584 1.615 C 1.068 2.968 0.971 6.092 0.971 8.734 C 0.939 11.859 1.068 15.597 1.873 16.402 C 2.808 17.368 9.959 13.342 13.825 11.086 C 13.858 11.118 13.89 11.183 13.923 11.216 C 10.056 13.663 2.614 18.013 1.584 16.949 Z M 19.367 9.12 C 19.914 9.185 20.56 9.282 21.236 9.379 C 21.913 9.508 22.654 9.668 23.362 9.862 C 24.072 10.055 24.78 10.281 25.425 10.539 C 25.746 10.668 26.069 10.797 26.36 10.925 C 26.649 11.054 26.938 11.183 27.165 11.311 C 27.648 11.57 28.067 11.794 28.324 11.989 C 28.614 12.15 28.743 12.278 28.743 12.278 C 28.743 12.278 28.581 12.213 28.26 12.085 C 28.099 12.021 27.938 11.956 27.712 11.859 C 27.486 11.794 27.26 11.699 27.003 11.602 C 26.746 11.505 26.455 11.408 26.165 11.311 C 25.876 11.216 25.553 11.118 25.231 10.989 C 24.909 10.86 24.555 10.797 24.232 10.668 C 23.878 10.57 23.524 10.474 23.169 10.378 C 22.461 10.184 21.752 9.992 21.076 9.83 C 20.431 9.668 19.819 9.539 19.303 9.411 C 19.303 9.346 19.303 9.282 19.303 9.217 C 19.4 9.185 19.367 9.153 19.367 9.12 Z M 19.303 7.639 C 19.786 7.445 20.333 7.22 20.946 7.027 C 21.558 6.834 22.235 6.64 22.879 6.447 C 23.555 6.286 24.232 6.124 24.877 6.028 C 25.522 5.932 26.101 5.867 26.649 5.834 C 27.165 5.803 27.584 5.803 27.905 5.834 C 28.195 5.834 28.389 5.867 28.389 5.867 C 28.389 5.867 28.227 5.899 27.905 5.932 C 27.615 5.964 27.197 6.061 26.681 6.124 C 26.423 6.189 26.165 6.221 25.876 6.286 C 25.585 6.351 25.296 6.415 24.974 6.48 C 24.65 6.543 24.329 6.64 24.007 6.705 C 23.685 6.769 23.362 6.866 23.008 6.929 C 21.687 7.253 20.366 7.639 19.4 7.896 C 19.303 7.929 19.207 7.961 19.109 7.961 C 19.077 7.896 19.045 7.801 19.013 7.736 C 19.109 7.736 19.207 7.671 19.303 7.639 Z M 16.34 11.699 C 15.533 11.699 14.792 11.311 14.342 10.699 C 14.792 11.151 15.437 11.441 16.145 11.441 C 17.531 11.441 18.659 10.313 18.659 8.928 C 18.659 8.348 18.466 7.832 18.143 7.413 C 18.594 7.864 18.852 8.477 18.852 9.153 C 18.852 10.57 17.724 11.699 16.34 11.699 Z M 30.386 16.949 C 29.355 18.013 22.396 13.953 18.401 11.441 C 18.433 11.408 18.498 11.344 18.531 11.311 C 22.461 13.599 29.162 17.305 30.064 16.402 C 30.869 15.564 30.998 11.827 30.966 8.734 C 30.998 6.061 30.901 2.968 30.353 1.615 C 30.353 1.615 30.353 1.615 30.353 1.615 C 31.16 2.452 31.288 6.189 31.255 9.282 C 31.353 12.375 31.191 16.112 30.386 16.949 Z" style="fill: rgb(255, 255, 255);"/>
</svg>