<?xml version="1.0" encoding="utf-8"?>
<svg version="1.1" id="Layer_1" x="0px" y="0px" viewBox="0 0 64 64" style="enable-background:new 0 0 595.3 841.9;" xmlns="http://www.w3.org/2000/svg">
  <style type="text/css">
	.st0{fill:#55473D;}
	.st1{fill:#FCF8ED;}
</style>
  <g style="" transform="matrix(0.395306, 0, 0, 0.395306, -85.781296, -134.206238)">
    <g>
      <g/>
    </g>
    <g>
      <path class="st1" d="M 347.6 420.5 C 347.7 431.2 347.2 444.1 344.2 446.9 C 340.5 450.3 318.3 437.4 304.2 428.4 C 302.7 429.4 300.9 430 299 430 C 296.6 430 294.5 429.1 292.8 427.7 C 278.7 436.7 255.4 450.4 251.7 446.9 C 248.7 444.1 248.2 431.2 248.3 420.5 C 248.2 409.8 248.7 396.9 251.7 394.1 C 255.5 390.6 278.8 404.3 292.8 413.3 C 294.5 411.9 296.6 411 299 411 C 300.9 411 302.7 411.6 304.2 412.6 C 318.3 403.6 340.6 390.7 344.2 394.1 C 347.2 396.9 347.7 409.8 347.6 420.5 Z M 259.7 410.2 C 259.7 410.2 260.3 410.3 261.2 410.4 C 262.1 410.5 263.4 410.7 265 411 C 265.8 411.2 266.6 411.3 267.5 411.5 C 268.4 411.7 269.3 411.9 270.3 412.1 C 271.3 412.3 272.3 412.6 273.3 412.8 C 274.3 413 275.4 413.2 276.4 413.5 C 280.5 414.5 284.5 415.7 287.6 416.5 C 288.5 416.8 289.4 417 290.1 417.2 C 290.2 417 290.2 416.8 290.3 416.7 C 289.6 416.3 288.8 416 287.9 415.6 C 286.5 415 284.7 414.3 282.8 413.7 C 280.9 413 278.9 412.4 276.8 411.9 C 274.7 411.4 272.6 410.9 270.6 410.6 C 268.6 410.3 266.7 410.1 265.1 410 C 263.5 410 262.1 410 261.2 410 C 260.2 410.1 259.7 410.2 259.7 410.2 Z M 258.2 430 C 258.2 430 258.8 429.8 259.7 429.4 C 260.2 429.2 260.8 429 261.4 428.7 C 262.1 428.5 262.8 428.2 263.6 427.9 C 264.4 427.6 265.3 427.3 266.2 427 C 267.1 426.6 268.1 426.3 269.1 426 C 270.1 425.6 271.1 425.3 272.2 425 C 273.3 424.7 274.4 424.4 275.5 424.1 C 277.7 423.4 279.9 422.9 282 422.4 C 284.1 421.9 286 421.5 287.7 421.1 C 288.3 420.9 288.9 420.8 289.4 420.7 C 289.4 420.6 289.4 420.6 289.4 420.5 C 289.4 420.3 289.4 420.2 289.4 420 C 288.8 420.1 288.3 420.1 287.6 420.2 C 285.9 420.3 283.9 420.6 281.8 421 C 279.7 421.4 277.4 421.9 275.2 422.5 C 273 423.1 270.8 423.8 268.8 424.6 C 267.8 425 266.8 425.4 265.9 425.8 C 265 426.2 264.2 426.6 263.4 427 C 261.9 427.8 260.6 428.6 259.8 429.1 C 258.9 429.7 258.2 430 258.2 430 Z M 291.6 426.7 C 291.5 426.6 291.4 426.4 291.3 426.3 C 279.3 433.3 257.1 445.8 254.2 442.8 C 251.7 440.3 251.3 428.7 251.4 419 C 251.4 410.8 251.7 401.1 253.3 396.9 C 250.8 399.4 250.4 411 250.5 420.7 C 250.4 430.3 250.8 441.9 253.3 444.5 C 256.5 447.8 279.6 434.3 291.6 426.7 Z M 308.3 420.5 C 308.3 420.7 308.3 420.9 308.3 421.1 C 309.9 421.5 311.8 421.9 313.8 422.4 C 315.9 422.9 318.1 423.5 320.3 424.1 C 321.4 424.4 322.5 424.7 323.6 425 C 324.6 425.4 325.7 425.6 326.7 426 C 327.7 426.4 328.7 426.7 329.6 427 C 330.5 427.3 331.4 427.6 332.2 427.9 C 333 428.2 333.7 428.5 334.4 428.7 C 335.1 429 335.6 429.2 336.1 429.4 C 337.1 429.8 337.6 430 337.6 430 C 337.6 430 337.2 429.6 336.3 429.1 C 335.5 428.5 334.2 427.8 332.7 427 C 332 426.6 331.1 426.2 330.2 425.8 C 329.3 425.4 328.3 425 327.3 424.6 C 325.3 423.8 323.1 423.1 320.9 422.5 C 318.7 421.9 316.4 421.4 314.3 421 C 312.2 420.7 310.2 420.4 308.5 420.2 C 308.5 420.3 308.6 420.4 308.3 420.5 Z M 307.4 415.9 C 307.5 416.1 307.6 416.4 307.7 416.6 C 308 416.6 308.3 416.5 308.6 416.4 C 311.6 415.6 315.7 414.4 319.8 413.4 C 320.9 413.2 321.9 412.9 322.9 412.7 C 323.9 412.5 324.9 412.2 325.9 412 C 326.9 411.8 327.8 411.6 328.7 411.4 C 329.6 411.2 330.4 411.1 331.2 410.9 C 332.8 410.7 334.1 410.4 335 410.3 C 336 410.2 336.5 410.1 336.5 410.1 C 336.5 410.1 335.9 410 335 410 C 334 409.9 332.7 409.9 331.1 410 C 329.4 410.1 327.6 410.3 325.6 410.6 C 323.6 410.9 321.5 411.4 319.4 411.9 C 317.4 412.5 315.3 413.1 313.4 413.7 C 311.5 414.3 309.8 415 308.3 415.6 C 308 415.7 307.7 415.9 307.4 415.9 Z M 306.9 420.3 C 306.9 418.2 306.1 416.3 304.7 414.9 C 305.7 416.2 306.3 417.8 306.3 419.6 C 306.3 423.9 302.8 427.4 298.5 427.4 C 296.3 427.4 294.3 426.5 292.9 425.1 C 294.3 427 296.6 428.2 299.1 428.2 C 303.4 428.2 306.9 424.7 306.9 420.3 Z M 345.4 420.7 C 345.5 411.1 345.1 399.5 342.6 396.9 C 344.3 401.1 344.6 410.7 344.5 419 C 344.6 428.6 344.2 440.2 341.7 442.8 C 338.9 445.6 318.1 434.1 305.9 427 C 305.8 427.1 305.6 427.3 305.5 427.4 C 317.9 435.2 339.5 447.8 342.7 444.5 C 345.2 441.9 345.7 430.3 345.4 420.7 Z M 378.9 420.9 C 378.9 418.1 377.5 415.7 375.5 414.1 C 377.3 412.2 378.2 409.6 377.8 406.8 C 377.3 404.1 375.6 401.9 373.3 400.7 C 374.8 398.5 375.2 395.7 374.3 393.1 C 373.4 390.5 371.2 388.7 368.8 387.9 C 369.9 385.5 369.8 382.7 368.4 380.3 C 367 377.9 364.6 376.4 362 376.2 C 362.6 373.7 362.1 370.9 360.3 368.7 C 358.5 366.6 355.9 365.6 353.3 365.7 C 353.5 363.1 352.5 360.4 350.3 358.6 C 348.2 356.8 345.4 356.3 342.9 356.9 C 342.6 354.3 341.2 351.9 338.8 350.5 C 336.4 349.1 333.6 349.1 331.2 350.1 C 330.5 347.6 328.6 345.4 326 344.5 C 323.4 343.6 320.6 344 318.5 345.4 C 317.4 343.1 315.2 341.3 312.4 340.8 C 309.7 340.3 307 341.2 305.2 343 C 303.7 340.9 301.2 339.5 298.4 339.5 C 295.6 339.5 293.2 340.9 291.6 342.9 C 289.7 341.1 287.1 340.1 284.3 340.6 C 281.6 341.1 279.4 342.8 278.2 345.1 C 276 343.6 273.2 343.2 270.6 344.1 C 268 345 266.2 347.2 265.4 349.6 C 263 348.5 260.2 348.6 257.8 350 C 255.4 351.4 253.9 353.8 253.7 356.4 C 251.2 355.8 248.4 356.3 246.2 358.1 C 244.1 359.9 243.1 362.5 243.2 365.1 C 240.6 364.9 237.9 365.9 236.1 368.1 C 234.3 370.2 233.8 373 234.4 375.5 C 231.8 375.8 229.4 377.2 228 379.6 C 226.6 382 226.6 384.8 227.6 387.2 C 225.1 387.9 222.9 389.8 222 392.4 C 221.1 395 221.5 397.8 222.9 399.9 C 220.6 401 218.8 403.2 218.3 406 C 217.8 408.7 218.7 411.4 220.5 413.2 C 218.4 414.7 217 417.2 217 420 C 217 422.8 218.4 425.2 220.4 426.8 C 218.6 428.7 217.7 431.3 218.1 434.1 C 218.6 436.8 220.3 439 222.6 440.2 C 221.1 442.4 220.7 445.2 221.6 447.8 C 222.5 450.4 224.7 452.2 227.1 453 C 226 455.4 226.1 458.2 227.5 460.6 C 228.9 463 231.3 464.5 233.9 464.7 C 233.3 467.2 233.8 470 235.6 472.2 C 237.4 474.3 240 475.3 242.6 475.2 C 242.4 477.8 243.4 480.5 245.6 482.3 C 247.7 484.1 250.5 484.6 253 484 C 253.3 486.6 254.7 489 257.1 490.4 C 259.5 491.8 262.3 491.8 264.7 490.8 C 265.4 493.3 267.3 495.5 269.9 496.4 C 272.5 497.3 275.3 496.9 277.4 495.5 C 278.5 497.8 280.7 499.6 283.5 500.1 C 286.2 500.6 288.9 499.7 290.7 497.9 C 292.2 500 294.7 501.4 297.5 501.4 C 300.3 501.4 302.7 500 304.3 498 C 306.2 499.8 308.8 500.8 311.6 500.3 C 314.3 499.8 316.5 498.1 317.7 495.8 C 319.9 497.3 322.7 497.7 325.3 496.8 C 327.9 495.9 329.7 493.7 330.5 491.3 C 332.9 492.4 335.7 492.3 338.1 490.9 C 340.5 489.5 342 487.1 342.2 484.5 C 344.7 485.1 347.5 484.6 349.7 482.8 C 351.8 481 352.8 478.4 352.7 475.8 C 355.3 476 358 475 359.8 472.8 C 361.6 470.7 362.1 467.9 361.5 465.4 C 364.1 465.1 366.5 463.7 367.9 461.3 C 369.3 458.9 369.3 456.1 368.3 453.7 C 370.8 453 373 451.1 373.9 448.5 C 374.8 445.9 374.4 443.1 373 441 C 375.3 439.9 377.1 437.7 377.6 434.9 C 378.1 432.2 377.2 429.5 375.4 427.7 C 377.6 426.1 378.9 423.7 378.9 420.9 Z" style="fill: rgb(255, 255, 255);"/>
    </g>
  </g>
</svg>